# xmcd
#
# Track frame offsets: 
#        150
#        23195
#        45761
#        65644
#        87841
#        113855
#        124852
#        149994
#        172942
#        206926
#        231265
#        250041
#        275447
#        277480
#
# Disc length: 3974 seconds
#
# Revision: 1
# Processed by: cddbd v1.5.2PL0 Copyright (c) Steve Scherf et al.
# Submitted via: ExactAudioCopyFreeDBPlugin 1.0
#
DISCID=d70f840e
DTITLE=Ruudolf - Asvalttisoturin Viimeinen Hidas
DYEAR=2010
DGENRE=Rap
TTITLE0=Paluu Tulevaisuuteen
TTITLE1=Voisits‰ Rakastaa Asfalttisoturii
TTITLE2=Leikkii Kotii (feat. Hyz‰)
TTITLE3=Tyytt‰‰ (feat. Solonen)
TTITLE4=Anna Sen Marinoituu (feat. Koira)
TTITLE5=Kuuluuki Kuplia
TTITLE6=Tiet‰‰ Mist Ne Puhuu
TTITLE7=Aina Takas Kotiin (feat. Yodarok)
TTITLE8=Ihanku Ei Ois Pamahtanu (feat. Koira and Tonto Slonko)
TTITLE9=Tˆˆtt‰‰
TTITLE10=Koira Ei Itke (feat. Koira)
TTITLE11=Maksimoin (feat. Koira)
TTITLE12=Wu-Tang Is The Best
TTITLE13=Leijonakuningas-laulu (feat. Koira)
EXTD=
EXTT0=
EXTT1=
EXTT2=
EXTT3=
EXTT4=
EXTT5=
EXTT6=
EXTT7=
EXTT8=
EXTT9=
EXTT10=
EXTT11=
EXTT12=
EXTT13=
PLAYORDER=
